<svg xmlns="http://www.w3.org/2000/svg" width="121.85" height="82.512" viewBox="0 0 121.85 82.512">
  <g id="icon_065240" transform="translate(0 -82.648)">
    <path id="パス_10" data-name="パス 10" d="M317.4,82.648H261.429a2.086,2.086,0,0,0-2.078,2.078v42.52h0v.036h60.128V84.726A2.079,2.079,0,0,0,317.4,82.648Zm-6.978,4.024a1.966,1.966,0,0,1,1.881.761c.017.021.033.041.048.064a1.831,1.831,0,0,1,.235.471.136.136,0,0,0,0,.019,1.943,1.943,0,0,1,.089.583v29.98a1.929,1.929,0,0,1-1.934,1.922H280.779a1.927,1.927,0,0,1-1.358-3.291L309.39,87.212a1.9,1.9,0,0,1,1.016-.537Z" transform="translate(-197.629)" fill="#374149"/>
    <path id="パス_11" data-name="パス 11" d="M94.518,192.2V174.06h-22.5a3.637,3.637,0,0,0-3.423,2.426l-4.145,11.736-1.4,3.938h.013l-.013.036Z" transform="translate(-48.044 -69.657)" fill="#374149"/>
    <path id="パス_12" data-name="パス 12" d="M176.607,274.036a2.481,2.481,0,0,0,0,4.961,2.491,2.491,0,0,0,2.486-2.486,2.457,2.457,0,0,0-1.153-2.09A2.5,2.5,0,0,0,176.607,274.036Z" transform="translate(-132.691 -145.84)" fill="#374149"/>
    <path id="パス_13" data-name="パス 13" d="M178.191,352.6l-14.943-.011.008.018h-.04a12.98,12.98,0,0,1,1.568,5.387h43.367a13.024,13.024,0,0,1,1.22-4.676c.114-.232.217-.467.347-.693H209.7c.006-.012.011-.025.017-.036Z" transform="translate(-124.373 -205.697)" fill="#374149"/>
    <path id="パス_14" data-name="パス 14" d="M84.822,335.3a11.813,11.813,0,0,0-19.872,0,11.508,11.508,0,0,0-1.838,5.387,9.58,9.58,0,0,0-.055,1.028,11.828,11.828,0,1,0,23.657,0,9.581,9.581,0,0,0-.054-1.028A11.5,11.5,0,0,0,84.822,335.3Zm-12.977,6.034a2.536,2.536,0,0,1,.05-.288,2.6,2.6,0,0,1,.1-.36,3.064,3.064,0,0,1,5.784,0,2.733,2.733,0,0,1,.1.362c.021.093.037.188.049.284a3.238,3.238,0,0,1,.031.382,3.072,3.072,0,0,1-6.143,0A3.2,3.2,0,0,1,71.845,341.332Z" transform="translate(-48.05 -188.39)" fill="#374149"/>
    <path id="パス_15" data-name="パス 15" d="M381.148,335.28a11.824,11.824,0,0,0-21.728,5.4,9.513,9.513,0,0,0-.055,1.028,11.837,11.837,0,0,0,23.674,0,9.576,9.576,0,0,0-.055-1.028A11.857,11.857,0,0,0,381.148,335.28Zm-12.827,5.4a3.05,3.05,0,0,1,5.765,0,2.442,2.442,0,0,1,.1.364,2.628,2.628,0,0,1,.048.279,3.068,3.068,0,1,1-6.112.384A2.484,2.484,0,0,1,368.321,340.685Z" transform="translate(-273.841 -188.39)" fill="#374149"/>
    <path id="パス_16" data-name="パス 16" d="M120.713,171.066v-.036H56.392V132.473h0v-.036H18.882a6.353,6.353,0,0,0-5.964,4.217L0,173.263v11.585a5.386,5.386,0,0,0,5.369,5.387H13.26a12.909,12.909,0,0,1,1.213-4.648c.117-.236.222-.475.355-.7H14.81c.006-.011.011-.025.018-.036H5.4V174.183l12.612-35.71a.925.925,0,0,1,.865-.631H50.987v38.593h64.32v8.4h-4l-1.9-.018.008.018h-.04a13.152,13.152,0,0,1,1.567,5.4h9.766V171.066Z" transform="translate(0 -37.94)" fill="#374149"/>
  </g>
</svg>
